HIERARCHY
ROOT hip
{
	OFFSET 0.000000 0.000000 0.000000 
	CHANNELS 6 Xposition Yposition Zposition Xrotation Zrotation Yrotation
	JOINT abdomen
	{
		OFFSET 0.000000 3.402643 0.000000 
		CHANNELS 3 Xrotation Zrotation Yrotation
		JOINT chest
		{
			OFFSET 0.000000 8.438565 -0.680529 
			CHANNELS 3 Xrotation Zrotation Yrotation
			JOINT neck
			{
				OFFSET 0.000000 10.207942 -0.272212 
				CHANNELS 3 Xrotation Zrotation Yrotation
				JOINT head
				{
					OFFSET 0.000000 3.130431 0.000000 
					CHANNELS 3 Xrotation Zrotation Yrotation
					End Site
					{
						OFFSET 0.000000 3.130435 0.000000 
					}
				}
			}
			JOINT lCollar
			{
				OFFSET 3.470700 6.669187 -0.816635 
				CHANNELS 3 Yrotation Zrotation Xrotation
				JOINT lShldr
				{
					OFFSET 3.198488 0.000000 0.000000 
					CHANNELS 3 Zrotation Yrotation Xrotation
					JOINT lForeArm
					{
						OFFSET 10.139888 0.000000 0.000000 
						CHANNELS 3 Yrotation Zrotation Xrotation
						JOINT lHand
						{
							OFFSET 8.370511 0.000000 0.000000 
							CHANNELS 3 Zrotation Yrotation Xrotation
							End Site
							{
								OFFSET 4.083176 0.000000 0.000000 
							}
						}
					}
				}
			}
			JOINT rCollar
			{
				OFFSET -3.470700 6.669187 -0.816635 
				CHANNELS 3 Yrotation Zrotation Xrotation
				JOINT rShldr
				{
					OFFSET -3.198488 0.000000 0.000000 
					CHANNELS 3 Zrotation Yrotation Xrotation
					JOINT rForeArm
					{
						OFFSET -10.139888 0.000000 0.000000 
						CHANNELS 3 Yrotation Zrotation Xrotation
						JOINT rHand
						{
							OFFSET -8.370511 0.000000 0.000000 
							CHANNELS 3 Zrotation Yrotation Xrotation
							End Site
							{
								OFFSET -4.083176 0.000000 0.000000 
							}
						}
					}
				}
			}
		}
	}
	JOINT lThigh
	{
		OFFSET 5.308129 -1.633274 1.361059 
		CHANNELS 3 Xrotation Zrotation Yrotation
		JOINT lShin
		{
			OFFSET -2.041588 -20.007561 0.000000 
			CHANNELS 3 Xrotation Zrotation Yrotation
			JOINT lFoot
			{
				OFFSET 0.000000 -19.190928 -1.224953 
				CHANNELS 3 Xrotation Yrotation Zrotation
				End Site
				{
					OFFSET 0.000000 -2.449906 4.627600 
				}
			}
		}
	}
	JOINT rThigh
	{
		OFFSET -5.308129 -1.633274 1.361059 
		CHANNELS 3 Xrotation Zrotation Yrotation
		JOINT rShin
		{
			OFFSET 2.041588 -20.007561 0.000000 
			CHANNELS 3 Xrotation Zrotation Yrotation
			JOINT rFoot
			{
				OFFSET 0.000000 -19.190928 -1.224953 
				CHANNELS 3 Xrotation Yrotation Zrotation
				End Site
				{
					OFFSET 0.000000 -2.449906 4.627600 
				}
			}
		}
	}
}
MOTION
Frames: 17
Frame Time: 0.033333
-0.075539 49.387222 -2.875864 -0.039063 0.068359 -0.019578 0.000000 0.000000 0.000000 -4.717018 -0.554755 -0.159306 4.166069 1.152730 -0.451992 6.248954 -1.707542 0.812357 0.975366 12.786570 -3.877994 -3.409060 10.268805 -4.222095 1.240075 -1.796248 8.915967 0.122096 -2.208450 -3.416069 -0.533968 -7.797978 -3.758646 -1.610810 -13.010039 15.118091 -2.182140 -3.662292 -8.839447 4.942841 4.823193 -3.025301 4.172170 3.851995 1.648800 -2.695788 -3.952348 -1.627555 -0.479884 -0.018793 0.589067 3.784001 -3.940847 -4.086134 -1.521628 4.005910 4.513550 -0.477130 -0.009072 -1.060046 
-0.089633 49.375889 -2.877966 -0.048828 -0.029297 -0.097631 0.000000 0.000000 0.000000 -4.736479 -0.457417 -0.049993 4.139694 1.167462 -0.423632 6.503202 -1.483378 0.640314 0.965294 12.942663 -3.902726 -3.518104 10.190124 -4.285867 1.251345 -1.791494 8.994355 0.170862 -2.205549 -3.419039 -0.632098 -8.027527 -3.802488 -1.245312 -13.020300 15.080312 -2.192415 -3.743239 -8.609957 5.224674 4.691587 -3.016235 4.060794 3.963877 1.772143 -2.382081 -3.990548 -1.717679 -0.786144 -0.014454 0.685543 3.668236 -3.834484 -4.010793 -1.308459 4.012930 4.558159 -0.345307 0.004183 -0.897656 
-0.093033 49.382313 -2.873209 -0.166016 -0.166015 -0.126472 0.000000 0.000000 0.000000 -4.697349 -0.340649 -0.069666 4.227711 1.258151 -0.398517 6.141742 -1.492762 0.650086 0.903387 13.142297 -3.853197 -3.776486 10.276730 -4.416276 1.262046 -1.714846 8.971817 0.081453 -2.347827 -3.413498 -0.677401 -7.936804 -3.759637 -1.231554 -12.952431 14.874620 -2.204461 -3.826879 -8.331769 5.193571 4.905078 -3.009374 3.784555 4.098217 1.844732 -1.484226 -3.949257 -1.793951 -1.001490 -0.029403 0.680186 4.021778 -3.690073 -3.943903 -1.784912 3.996393 4.387425 -0.434069 -0.003744 -1.089228 
-0.116312 49.381432 -2.867847 -0.166017 -0.244140 -0.204371 0.000000 0.000000 0.000000 -4.716858 -0.291977 -0.034503 4.111658 1.273097 -0.418405 6.386141 -1.307614 0.548660 0.954855 13.275471 -3.874854 -3.925320 10.305292 -4.482419 1.282961 -1.664561 8.999278 -0.239879 -2.376648 -3.393819 -0.638102 -7.734276 -3.778501 -1.428349 -12.932741 14.855161 -2.206125 -3.838756 -8.293326 5.129663 4.451797 -3.032356 3.734977 4.204182 1.955342 -1.346696 -3.987462 -1.851485 -1.174331 -0.021412 0.746568 4.226767 -3.582672 -3.846376 -2.252865 3.996598 4.490306 -0.325396 0.002255 -1.096993 
-0.115180 49.373249 -2.873183 -0.019531 -0.136719 -0.165969 0.000000 0.000000 0.000000 -4.873149 -0.369752 -0.056367 4.052522 1.332557 -0.506964 6.288081 -1.668559 0.633835 0.827052 13.078995 -4.004107 -3.673275 10.453966 -4.109251 1.287883 -1.837355 8.898723 -0.082144 -2.230357 -3.403567 -0.677082 -7.818949 -3.916252 -1.428252 -12.981592 14.845509 -2.211618 -3.865709 -8.158637 5.426473 4.770792 -2.993690 3.729645 4.081342 1.785650 -1.717747 -3.920292 -1.768237 -1.082685 -0.010718 0.740048 3.675437 -3.675399 -3.896656 -1.442439 3.965563 4.364252 -0.501151 0.001713 -1.045528 
-0.119208 49.386581 -2.874782 -0.068360 -0.126953 -0.117036 0.000000 0.000000 0.000000 -4.843852 -0.369768 -0.115150 4.031078 1.281533 -0.461904 6.317478 -1.590531 0.707993 0.939078 12.915294 -3.986509 -3.573455 10.327515 -4.053255 1.342057 -1.954300 8.767633 -0.007498 -2.333542 -3.408138 -0.790075 -7.928291 -3.894242 -1.251966 -12.923024 14.914599 -2.203975 -3.788417 -8.319877 5.228519 4.985180 -2.997021 3.831636 4.056898 1.780027 -1.836544 -3.895741 -1.642810 -0.520262 -0.014616 0.507046 3.709305 -3.710284 -3.947776 -1.366499 4.011061 4.397751 -0.225311 0.004163 -0.803240 
-0.142614 49.396408 -2.865671 -0.156250 -0.117187 -0.204759 0.000000 0.000000 0.000000 -4.795022 -0.369795 -0.017809 4.121681 1.205633 -0.458347 5.819464 -1.414345 0.547266 0.954763 12.883956 -3.937893 -3.677597 10.296704 -4.382084 1.349670 -1.754176 8.993992 0.076231 -2.260091 -3.413099 -0.782093 -8.008291 -3.859013 -1.232755 -13.030420 14.933384 -2.203009 -3.824752 -8.370746 5.214019 4.524764 -3.027308 4.025779 4.104939 1.876527 -2.048793 -3.958334 -1.684367 -0.938559 -0.024899 0.702764 4.283467 -3.678859 -3.933024 -2.369434 4.024837 4.549074 -0.316748 0.007362 -1.095009 
-0.170551 49.399807 -2.871800 -0.224610 -0.146483 -0.194738 0.000000 0.000000 0.000000 -4.775501 -0.389269 -0.016309 4.267947 1.205187 -0.473420 5.506907 -1.384695 0.543631 1.005061 12.919899 -3.931840 -3.695394 10.218842 -4.294922 1.337071 -1.827835 8.908734 -0.048745 -2.463165 -3.405588 -0.787672 -7.880640 -3.838377 -1.400662 -13.000911 14.951473 -2.204612 -3.817663 -8.321486 5.304144 4.490454 -3.020729 3.876350 4.160543 1.926181 -1.513819 -3.982956 -1.877969 -0.990586 -0.021828 0.672633 4.280162 -3.597848 -3.905306 -2.292427 4.007810 4.467517 -0.232941 -0.003093 -1.004626 
-0.163378 49.390488 -2.876695 -0.156251 -0.234374 -0.126314 0.000000 0.000000 0.000000 -4.814529 -0.321129 -0.080375 4.178734 1.227103 -0.496806 5.585275 -1.199506 0.502681 0.957474 13.001688 -3.973331 -3.733628 10.287358 -4.219042 1.346163 -1.857887 8.900356 -0.138214 -2.605422 -3.399636 -0.839903 -7.798287 -3.877813 -1.420513 -12.961802 14.962139 -2.198310 -3.770695 -8.465505 5.500059 4.862714 -2.988499 3.727648 4.235747 1.948619 -1.416393 -3.963380 -1.817307 -1.066386 -0.015061 0.706870 4.081953 -3.535138 -3.866782 -2.018677 4.015981 4.233071 -0.328442 0.001025 -1.013828 
-0.164134 49.389359 -2.883754 -0.097657 -0.185547 -0.185231 0.000000 0.000000 0.000000 -4.863378 -0.360027 -0.037727 4.209102 1.230439 -0.451747 5.438554 -1.365103 0.573502 1.039428 13.005589 -4.009577 -3.834492 10.276748 -4.360674 1.257047 -1.768021 8.748986 -0.536554 -2.491952 -3.375664 -0.863620 -7.816326 -3.924935 -1.339996 -12.883953 14.879898 -2.197582 -3.769633 -8.484993 5.261379 5.104288 -2.985523 3.792674 4.193946 1.952434 -1.708720 -3.998158 -1.766333 -0.884867 -0.028990 0.638212 4.207241 -3.602975 -3.918186 -2.390319 4.067058 4.497138 -0.188335 0.000229 -0.961407 
-0.175207 49.396030 -2.889920 -0.185549 -0.263670 -0.184693 0.000000 0.000000 0.000000 -4.804763 -0.321133 -0.041367 4.306986 1.297699 -0.509643 5.311264 -1.569672 0.578530 0.991175 13.087152 -3.961489 -3.924968 10.305367 -4.462891 1.238253 -1.691472 8.716372 -1.811603 -2.790958 -3.305743 -0.817785 -7.780638 -3.869276 -1.301261 -12.893673 14.917004 -2.207025 -3.783459 -8.231636 5.592096 5.160974 -2.963512 3.726552 4.274331 1.991893 -1.387491 -3.961919 -1.790176 -1.087850 -0.025103 0.713483 4.012757 -3.535280 -3.879398 -1.823501 4.075517 4.381816 -0.256399 0.004034 -0.907905 
-0.184644 49.393513 -2.900240 -0.126954 -0.214843 -0.165540 0.000000 0.000000 0.000000 -4.834091 -0.379505 -0.026499 4.287534 1.302451 -0.532548 5.262386 -1.589092 0.571239 0.984309 13.136666 -3.977334 -3.985099 10.265834 -4.535823 1.293794 -1.702332 8.561112 -2.371830 -2.754442 -3.280371 -0.839202 -7.700657 -3.891826 -1.399318 -12.844798 14.892541 -2.196641 -3.758823 -8.503304 5.728689 4.992165 -2.963981 3.383110 4.233242 1.950429 -0.840939 -3.972103 -1.712295 -1.061509 -0.019339 0.652787 4.399489 -3.512453 -3.842451 -2.811275 4.020887 4.341637 -0.284920 0.009624 -1.135848 
-0.174703 49.389103 -2.910975 -0.273438 -0.126952 -0.175175 0.000000 0.000000 0.000000 -4.687637 -0.437983 -0.032447 4.345653 1.240518 -0.522535 5.467482 -1.628418 0.587218 0.998621 13.018645 -3.850002 -3.987709 10.216410 -4.691866 1.255684 -1.633967 8.548166 -2.429283 -2.777262 -3.276658 -0.772767 -7.871923 -3.757553 -1.189953 -12.855062 14.762850 -2.202732 -3.800439 -8.633660 5.572619 4.974134 -2.974373 3.807007 4.130282 1.905993 -1.415249 -3.959698 -1.691164 -0.962886 -0.020680 0.641590 4.378005 -3.637045 -3.964730 -2.468130 4.056565 4.491879 -0.469177 0.010532 -1.219862 
-0.177598 49.406597 -2.919405 -0.234376 -0.126952 -0.116668 0.000000 0.000000 0.000000 -4.716948 -0.457430 -0.050148 4.403608 1.243797 -0.473034 5.311169 -1.628169 0.669783 0.936102 13.042495 -3.867695 -3.985464 10.226662 -4.564970 1.303973 -1.710416 8.590858 -2.483973 -2.848829 -3.263180 -0.786596 -7.772845 -3.775683 -1.299649 -12.786431 14.838648 -2.211877 -3.766562 -8.358770 5.441473 4.673794 -3.002013 4.104427 4.125186 1.885607 -2.234240 -3.949057 -1.681066 -0.876676 -0.023062 0.713822 4.008695 -3.648440 -3.960123 -1.756204 4.037974 4.339279 -0.312036 -0.009371 -0.955016 
-0.175207 49.395397 -2.930568 -0.224610 -0.156249 -0.145872 0.000000 0.000000 0.000000 -4.677859 -0.418523 -0.034115 4.404046 1.219507 -0.412940 5.369739 -1.657514 0.689300 0.988666 12.940977 -3.838476 -3.715828 10.140433 -4.354220 1.356983 -1.904782 8.472387 -2.255025 -2.914093 -3.277916 -0.766238 -7.784360 -3.746178 -1.341998 -12.786024 14.996850 -2.205668 -3.691415 -8.481044 5.386291 4.788214 -2.996277 3.969478 4.156352 1.883431 -1.952195 -3.929443 -1.682689 -0.810051 -0.012177 0.644586 3.977932 -3.637300 -3.960263 -1.718284 4.090277 4.506322 -0.201335 0.004985 -0.855121 
-0.171559 49.397415 -2.936835 -0.263674 -0.224607 -0.194279 0.000000 0.000000 0.000000 -4.609452 -0.330957 0.007151 4.395439 1.163265 -0.389103 5.447989 -1.599135 0.605693 1.036135 12.917847 -3.782343 -3.718099 10.091092 -4.490740 1.361738 -1.815682 8.644794 -2.313596 -2.917420 -3.274207 -0.724436 -7.905387 -3.688458 -1.248874 -12.786663 14.755905 -2.214478 -3.789251 -8.301380 5.296297 4.636729 -3.011722 3.944121 4.218000 1.968966 -1.806918 -3.972955 -1.632492 -0.842694 -0.017269 0.632204 4.184641 -3.570158 -3.915887 -2.137063 4.068102 4.525344 -0.208036 -0.009979 -0.934007 
-0.179989 49.400558 -2.951509 -0.322266 -0.126951 -0.145770 0.000000 0.000000 0.000000 -4.560680 -0.438062 -0.013886 4.570324 1.072997 -0.404036 5.086759 -1.452339 0.577498 1.004137 12.940066 -3.731369 -3.769224 10.129617 -4.591007 1.327889 -1.696620 8.815200 -1.809921 -2.820207 -3.305745 -0.706809 -8.121477 -3.644445 -1.070922 -12.796650 14.727502 -2.207419 -3.788369 -8.496809 5.001022 4.836095 -3.021438 4.029591 4.128030 1.898136 -1.903659 -3.941388 -1.676025 -0.979292 -0.027385 0.701883 3.958110 -3.656186 -3.943215 -1.542395 4.040363 4.520785 -0.261942 0.006336 -0.865228 
